<!--
▪  ·▄▄▄▄• ▄▄▄·  ▐ ▄  ▄▄▄·  ▄▄ • ▪   ▄▄· ▄▄▄   ▄▄▄· ·▄▄▄▄▄▄▄▄
██ ▪▀·.█▌▐█ ▀█ •█▌▐█▐█ ▀█ ▐█ ▀ ▪██ ▐█ ▌▪▀▄ █·▐█ ▀█ ▐▄▄·•██
▐█·▄█▀▀▀•▄█▀▀█ ▐█▐▐▌▄█▀▀█ ▄█ ▀█▄▐█·██ ▄▄▐▀▀▄ ▄█▀▀█ ██▪  ▐█.▪
▐█▌█▌▪▄█▀▐█ ▪▐▌██▐█▌▐█ ▪▐▌▐█▄▪▐█▐█▌▐███▌▐█•█▌▐█ ▪▐▌██▌. ▐█▌·
▀▀▀·▀▀▀ • ▀  ▀ ▀▀ █▪ ▀  ▀ ·▀▀▀▀ ▀▀▀·▀▀▀ .▀  ▀ ▀  ▀ ▀▀▀  ▀▀▀


   @@@@@
   @@* *@@
     @@@  @@@
        @@@  @@ @@@       @@@@@@@@@@@
          @@@@@@@@   @@@@@@@@@@@@@@@@@@@@@
           @@@    @@@@@@@@@@@@@@@@@@@@@@@@@@@
                @@@@@@@@@@@@@@@@@@@@@@@@@@@@@@
               @@@@@@@@@@@@@@@@@@@@@@@@@@@@@@@@
               @@@@@@@@@@@@@@@@@@@@@@@@@@@@@@@@@@@@@@@@
              #@@@@@@@@@@@@@@@@@@@@@@@@@@@@@@@@@@@@@@@@@@@
              #@@@   @@                 @@  @@@@  @@@@
               @@@@      @@@      @@@@      @@@@   @@@
               @@@@@@                     @@@@@@    @@
                @@@@@@@@@@@@@@@@@@@@@@@@@@@@@@@
                 @@@@@@@@@@@@@@@@@@@@@@@@@@@@@
                  @@@@@@@@@@@@@@@@@@@@@@@@@@@
                    @@@@@@@@@@@@@@@@@@@@@@@
                      @@@@@@@@@@@@@@@@@@@
                          @@@@@@@@@@@

Copyright (c) 2023 - present | sanguine6660 <sanguine6660@gmail.com>
Copyright (c) 2023 - present | izanagicraft.com <contact@izanagicraft.com>
Copyright (c) 2023 - present | izanagicraft.com team and contributors
-->
<?xml version="1.0" encoding="UTF-8" standalone="no"?>
<!-- Created with Inkscape (http://www.inkscape.org/) -->

<svg
   width="1080"
   height="1080"
   viewBox="0 0 1080 1080"
   version="1.1"
   id="svg1"
   xml:space="preserve"
   xmlns:xlink="http://www.w3.org/1999/xlink"
   xmlns="http://www.w3.org/2000/svg"
   xmlns:svg="http://www.w3.org/2000/svg"
   xmlns:rdf="http://www.w3.org/1999/02/22-rdf-syntax-ns#"
   xmlns:cc="http://creativecommons.org/ns#"
   xmlns:dc="http://purl.org/dc/elements/1.1/"><title
     id="title1">IzanagiCraft-Logo</title><defs
     id="defs1"><linearGradient
       id="linearGradient9"><stop
         style="stop-color:#333333;stop-opacity:1;"
         offset="0"
         id="stop9" /><stop
         style="stop-color:#444444;stop-opacity:0;"
         offset="1"
         id="stop10" /></linearGradient><linearGradient
       xlink:href="#linearGradient9"
       id="linearGradient10"
       x1="-0.84116435"
       y1="30.852255"
       x2="49.306717"
       y2="30.852255"
       gradientUnits="userSpaceOnUse"
       gradientTransform="matrix(14.305863,0,0,14.305863,206.58238,25.28662)" /></defs><metadata
     id="metadata1"><rdf:RDF><cc:Work
         rdf:about=""><dc:title>IzanagiCraft-Logo</dc:title><dc:date>12.12.2023</dc:date><dc:creator><cc:Agent><dc:title>sanguine6660</dc:title></cc:Agent></dc:creator><dc:rights><cc:Agent><dc:title>none</dc:title></cc:Agent></dc:rights><dc:publisher><cc:Agent><dc:title>izanagicraft.com</dc:title></cc:Agent></dc:publisher><dc:identifier>izanagicraft-logo</dc:identifier><dc:source>none</dc:source><dc:relation>none</dc:relation><dc:language>german, english</dc:language><dc:subject><rdf:Bag><rdf:li>logo</rdf:li></rdf:Bag></dc:subject><dc:coverage>none</dc:coverage><dc:description>IzanagiCraft Logo Icon Thing SVG</dc:description><dc:contributor><cc:Agent><dc:title>izanagicraft.com | sanguine6660</dc:title></cc:Agent></dc:contributor></cc:Work></rdf:RDF></metadata><g
     id="layer1"><rect
       style="display:none;fill:#111111;fill-opacity:1;stroke-width:0.558104"
       id="rect1"
       width="1080"
       height="1080"
       x="-4.2632564e-14"
       y="-4.2632564e-14" /><path
       fill="#000000"
       d="m 718.57328,125.27231 87.03252,43.51628 c -3.82942,15.10884 -16.01398,39.11242 -34.98707,64.90886 -23.15066,31.57539 -55.00456,66.91061 -87.72879,99.46079 -32.55018,32.72422 -66.31881,63.01155 -93.12482,84.76968 -13.40302,10.79204 -25.23944,19.66937 -34.11676,25.4135 -4.35163,2.78505 -8.007,5.04789 -10.44391,6.26635 -0.52219,0.17406 -0.52219,0.17406 -0.87032,0.17406 -0.34814,0 -0.34814,0 -0.87033,-0.17406 -2.43691,-1.21846 -6.09226,-3.4813 -10.4439,-6.26635 -8.87731,-5.74413 -20.71374,-14.62146 -34.11677,-25.4135 -26.80601,-21.75813 -60.57463,-52.04546 -93.1248,-84.76968 -32.72424,-32.55018 -64.57815,-67.8854 -87.7288,-99.44339 -18.97309,-25.81384 -31.15765,-49.81742 -34.98708,-64.92626 L 370.095,125.27231 c 25.4135,51.74954 51.00105,108.16403 76.93675,156.7108 28.19855,53.08984 55.00457,96.95424 90.33979,114.70887 l 6.96259,3.4813 6.9626,-3.4813 c 35.33521,-17.75463 62.14123,-61.61903 90.33978,-114.70887 25.9357,-48.54677 51.52325,-104.97866 76.93677,-156.7108 z M 544.33413,314.70733 c 13.75114,0 26.98008,1.21846 39.51277,3.30724 -14.27333,21.23594 -27.85041,37.424 -39.51277,46.12725 -11.66236,-8.70325 -25.23943,-24.89131 -39.51278,-46.12725 12.53269,-2.08878 25.76163,-3.30724 39.51278,-3.30724 z m 144.64809,56.57116 c 40.55714,39.51277 62.48935,95.03953 62.48935,150.56628 v 1.04439 c -57.44146,-20.88781 -132.11539,-30.63545 -207.13744,-30.63545 -75.02205,0 -149.69597,9.74764 -207.13743,30.63545 v -1.04439 c 0,-55.52675 21.9322,-111.05351 62.48934,-150.56628 28.19855,27.15415 56.04896,51.87138 79.54776,70.84448 13.9252,11.31424 26.28381,20.71374 36.55366,27.32821 5.04788,3.4813 9.57357,6.09228 13.9252,8.18107 4.35163,2.08877 7.65888,4.17756 14.62147,4.17756 6.9626,0 10.26984,-2.08879 14.62147,-4.17756 4.35162,-2.08879 8.87733,-4.69977 13.92519,-8.18107 10.26985,-6.61447 22.62847,-16.01397 36.55369,-27.32821 23.49877,-18.9731 51.34919,-43.69033 79.54774,-70.84448 z m 111.92382,66.66691 c 35.85741,34.81302 54.8305,45.60506 111.05352,64.92628 -21.93216,43.34221 -45.08285,81.98466 -99.21709,106.52783 l -30.11324,-90.51384 c -0.17408,-9.92171 -0.87033,-19.84342 -2.26286,-29.76512 z m -513.14384,0 20.53968,51.17515 c -1.39252,9.9217 -2.08878,19.84341 -2.26284,29.76512 l -30.11326,90.51384 c -54.15164,-24.54317 -77.3023,-63.18562 -99.2345,-106.52783 56.22303,-19.32122 75.19613,-30.11326 111.07092,-64.92628 z M 560,523.75949 c 78.50334,1.5666 155.44009,15.14366 204.00425,38.64246 l 49.43447,147.9553 -75.37016,-34.4649 c -6.78854,-41.07934 -10.9661,-80.59211 -10.9661,-101.82805 v -25.4135 l -22.62847,11.31422 C 655.90984,584.33414 607.86787,597.56308 560,600 Z m -31.33173,0 V 600 c -47.8679,-2.43692 -95.90985,-15.66586 -144.47402,-40.03498 L 361.5658,548.6508 v 25.4135 c 0,21.23594 -4.17757,60.74871 -10.9661,101.82805 l -75.37018,34.4649 49.43449,-147.9553 c 48.56415,-23.4988 125.50091,-37.07586 204.00426,-38.64246 z m 168.14687,74.49986 c 2.26283,32.37609 8.35511,75.7183 16.71025,117.66799 5.22195,26.80601 11.48828,52.56764 18.27682,73.80359 6.78855,21.41001 12.70676,37.94618 24.19504,49.60856 l 4.69976,4.52566 h 6.44042 c 24.54317,0 67.7113,2.08875 91.73228,16.71027 -3.13317,2.43684 -8.35513,5.57006 -15.14366,8.5292 -16.36211,6.96257 -41.60154,13.40297 -72.23699,18.45079 -61.27091,10.26986 -144.29995,15.49184 -227.15493,15.49184 -82.85497,0 -165.88401,-5.22198 -227.15492,-15.49184 -30.63546,-5.04782 -55.8923,-11.48822 -72.25443,-18.45079 -6.78851,-2.95914 -12.01047,-6.09236 -15.14364,-8.5292 23.84691,-14.62152 67.20652,-16.71027 91.7497,-16.71027 h 6.44041 l 4.69975,-4.52566 c 11.48829,-11.66238 17.40649,-28.19855 24.19504,-49.60856 6.78855,-21.23595 13.05487,-46.99758 18.27683,-73.80359 8.35512,-41.94969 14.44741,-85.2919 16.71025,-117.66799 100.95775,44.03846 204.00427,44.03846 304.96202,0 z M 343.81117,713.49042 c -5.04789,24.54317 -10.79204,48.04197 -16.71025,66.84099 -5.04789,15.83992 -10.61797,26.63196 -14.09928,32.20204 -19.49529,-0.17407 -48.23342,0 -74.86537,8.87732 l 23.49877,-70.32229 z m 401.04592,0 82.15872,37.59806 23.49877,70.32229 c -26.63195,-8.87732 -55.35267,-9.05139 -74.84797,-8.87732 -3.4813,-5.57008 -9.05139,-16.36212 -14.09927,-32.20204 -5.91821,-18.79902 -11.66236,-42.29782 -16.71025,-66.84099 z"
       id="path1-5"
       style="fill:#666666;fill-opacity:1;stroke-width:1.741;stroke-dasharray:none" /><path
       style="opacity:0.5;fill:#8b0000;fill-opacity:1;stroke:url(#linearGradient10);stroke-width:14.3059;stroke-opacity:1"
       d="m 904.61117,190.96281 c -0.41487,-0.18598 -1.38766,0.25751 -3.27604,1.51642 -12.76083,8.49768 -63.38927,28.51159 -133.28772,44.19081 -65.83557,14.76365 -154.46039,25.20692 -238.82206,33.21821 -88.48175,8.38324 -213.08582,11.55913 -304.98668,-7.68225 -7.73947,-1.61656 -12.71791,0.90127 -11.97401,6.1086 0.52932,3.69092 1.37337,7.02418 4.40621,7.82531 4.06286,1.07294 5.75096,5.10719 3.74814,10.64356 -3.23313,8.88394 -13.21862,13.57627 -18.38304,19.7421 -5.30747,6.33749 27.35281,14.44892 42.83176,11.87386 18.44026,-3.07576 -5.16442,10.84385 23.21841,10.84385 16.63772,0 5.52206,30.39995 18.06831,30.95788 2.7038,0.12876 30.5287,-1.53073 71.27181,-4.12009 7.88252,-0.50071 14.27724,3.03284 14.27724,7.89684 0,4.86399 1.9599,9.29881 4.3919,9.89966 2.41769,0.60084 4.70663,3.87688 5.09289,7.29598 0.38625,3.4191 -3.69091,8.15434 -9.12714,10.58634 -5.43623,2.41769 -9.18437,6.68083 -8.38323,9.5134 0.80112,2.83256 -4.94984,4.96414 -12.84667,4.76385 l -56.03607,-1.4592 c -7.89684,-0.20028 -13.33306,5.96555 -12.14567,13.77655 l 0.80113,5.26455 c 1.18738,7.81101 8.5549,14.09128 16.45174,14.03405 l 63.38927,-0.4864 c 7.89684,-0.0572 14.00545,6.29459 13.63349,14.17711 l -3.81967,81.60065 c -0.37195,7.89683 -7.06709,14.39169 -14.97823,14.52045 l -15.90812,0.2575 c -7.89684,0.12875 -16.0941,-2.54644 -18.2972,-5.96554 -2.2031,-3.41911 -4.00564,-9.45618 -4.00564,-13.47612 0,-4.01995 2.9327,-7.62503 6.55208,-8.0256 3.61938,-0.41487 6.72376,-2.86117 6.93834,-5.47914 0.21459,-2.61798 3.00424,-4.57788 6.22306,-4.3919 3.21881,0.18597 5.83679,-1.58795 5.83679,-4.00564 0,-2.40339 -6.25166,-5.73666 -13.97683,-7.42475 l -15.14991,-3.33326 c -7.71086,-1.70239 -20.27141,-1.90268 -28.03948,-0.45778 l -14.90671,2.77533 c -7.76809,1.44489 -14.06267,4.24884 -14.06267,6.26597 0,2.01713 2.44631,3.81966 5.45054,4.03425 3.00423,0.21459 5.45053,2.17449 5.45053,4.3919 0,2.21741 4.57787,4.49204 10.22869,5.09288 5.65082,0.60085 10.07133,4.69233 9.87105,9.12715 -0.20029,4.43482 -2.97562,11.30163 -6.19444,15.32158 -3.21882,4.01995 -5.83679,12.67499 -5.83679,19.32721 0,6.65223 1.78822,12.36027 4.00563,12.77514 2.20311,0.41487 4.22024,7.13863 4.50635,15.03546 l 1.9599,55.33508 c 0.28612,7.89683 -1.78822,17.39592 -4.62079,21.22989 -2.83256,3.83398 -4.94982,11.84526 -4.73523,17.89664 0.21458,6.05138 2.17448,10.97259 4.39189,10.97259 2.21741,0 3.9055,6.40903 3.79105,14.30586 l -0.28612,18.81221 c -0.11444,7.89684 6.19445,14.43462 14.09128,14.6063 l 5.65082,0.11444 c 7.89683,0.15736 14.30586,-6.10861 14.30586,-14.00545 v -15.19281 c 0,-7.89684 6.40903,-14.42032 14.30586,-14.54907 l 13.77655,-0.22889 c 7.89683,-0.12875 14.42031,6.16583 14.54906,14.06266 l 0.21459,12.28873 c 0.14306,7.89684 6.65223,14.1342 14.54906,13.90531 l 25.3929,-0.70099 c 7.89684,-0.2146 14.40601,-6.79528 14.53476,-14.69212 l 0.2432,-15.19283 c 0.12875,-7.89684 5.63652,-14.46322 12.28874,-14.66351 6.66653,-0.20028 12.05984,6.05138 12.05984,13.94822 v 7.89684 c 0,7.89683 6.40902,14.4346 14.30586,14.59198 l 6.42334,0.12875 c 7.89683,0.15736 14.04835,-6.1086 13.74793,-14.00544 l -0.37196,-9.34173 c -0.31472,-7.89683 1.24461,-14.29156 3.47633,-14.29156 2.23171,0 3.36188,-5.89401 2.54644,-13.16139 -0.81543,-7.26738 -2.61797,-16.0941 -4.03425,-19.71348 -1.40197,-3.61938 -2.6752,-12.94681 -2.81826,-20.85795 l -0.87265,-45.135 c -0.15737,-7.89682 1.03002,-14.14849 2.63228,-13.94821 1.60226,0.20028 2.74672,-5.3647 2.54644,-12.41748 -0.20029,-7.0528 -1.50211,-15.04977 -2.90409,-17.86803 -1.40198,-2.81825 -2.71812,-8.69796 -2.9327,-13.13278 -0.21459,-4.43482 2.56075,-8.02558 6.19443,-8.02558 3.6337,0 6.5807,-1.95991 6.5807,-4.39191 0,-2.41769 2.94701,-4.70663 6.5807,-5.09288 3.63368,-0.38627 6.5807,-2.01713 6.5807,-3.648 0,-1.61656 -6.12291,-4.83538 -13.6621,-7.18154 l -15.06408,-4.67801 c -7.53919,-2.34617 -19.85653,-2.61798 -27.49586,-0.61516 l -8.76949,2.30324 c -7.63933,2.00283 -14.00544,5.25025 -14.22003,7.26739 -0.21459,2.01712 1.90267,4.29175 4.73524,5.09288 2.83256,0.80112 4.96414,3.09006 4.77816,5.09288 -0.20029,2.01713 2.26032,3.97704 5.47914,4.39191 3.21882,0.41486 5.66512,5.47914 5.45053,11.31594 -0.21459,5.83679 -6.78097,10.09993 -14.6492,9.51339 l -0.62946,-0.043 c -7.88252,-0.58655 -14.26294,-7.48197 -14.26294,-15.37881 v -80.87103 c 0,-7.89684 6.39472,-14.6349 14.29156,-15.03547 l 214.44486,-10.9869 c 7.89684,-0.40056 14.00545,5.66512 13.66211,13.56196 l -3.83397,86.76505 c -0.34334,7.89684 -5.04998,14.44892 -10.5005,14.64921 -5.45054,0.20028 -10.02842,-1.9313 -10.2287,-4.73524 l -0.35765,-5.09289 c 0,0 -0.31472,-4.42051 -0.71529,-9.87105 -0.38626,-5.45053 2.06005,-10.0284 5.47915,-10.22869 3.4191,-0.20028 6.68083,-2.63228 7.29599,-5.45053 0.60085,-2.81825 2.88979,-5.26456 5.09288,-5.47915 2.20311,-0.21459 4.00565,-2.50353 4.00565,-5.1358 0,-2.63228 -6.22306,-6.26597 -13.891,-8.15434 l -10.85814,-2.66089 c -7.66795,-1.88838 -20.11405,-1.87407 -27.78199,0 l -19.69917,4.84968 c -7.66795,1.88838 -13.89099,5.22165 -13.89099,7.45336 0,2.23171 2.947,3.70522 6.58069,3.29035 3.63369,-0.41488 6.73806,1.55934 6.93834,4.39189 0.20029,2.83257 2.97562,5.93694 6.19445,6.93835 3.21881,1.00141 6.32319,5.73665 6.93833,10.58634 0.60085,4.84969 -0.043,11.87386 -1.4592,15.70783 -1.40197,3.83397 -2.38907,13.14709 -2.18879,20.80073 0.20029,7.65363 1.17308,15.50755 2.18879,17.51037 1.01572,2.01713 1.9456,10.04272 2.08867,17.95386 l 0.92988,53.13197 c 0.14305,7.89684 -1.21601,17.23857 -3.00423,20.85795 -1.80254,3.61938 -2.94701,12.60347 -2.54645,20.05682 0.38626,7.46766 1.84546,13.6764 3.26174,13.87668 1.40197,0.20029 1.85976,6.72376 1.01572,14.57768 l -0.55793,5.16441 c -0.84405,7.85392 4.8783,14.22003 12.77513,14.22003 h 15.90812 c 7.89683,0 14.30586,-6.40902 14.30586,-14.30586 v -4.99275 c 0,-7.89684 5.06428,-14.13419 11.31594,-13.9196 6.25166,0.21459 11.31594,6.79529 11.31594,14.69212 v 2.74673 c 0,7.89683 6.40902,14.30586 14.30586,14.30586 h 32.67458 c 7.89684,0 13.80516,-6.38042 13.1757,-14.26295 l -0.62945,-7.99698 c -0.62946,-7.88252 3.76244,-14.09127 9.79951,-13.87668 6.03707,0.21458 11.08705,6.79528 11.25871,14.69212 l 0.11445,4.93552 c 0.18598,7.89684 6.73806,14.30586 14.6349,14.30586 h 9.32742 c 7.89684,0 13.80516,-6.38041 13.19001,-14.26294 l -0.67238,-8.69797 c -0.61515,-7.88252 -0.30042,-14.57767 0.70099,-14.97823 1.00141,-0.38626 2.13157,-6.42334 2.54644,-13.49043 0.41487,-7.06709 -0.88697,-16.20854 -2.90409,-20.45738 -2.01713,-4.23454 -3.57646,-14.07697 -3.49063,-21.98811 l 1.10155,-99.82631 c 0.0858,-7.89684 2.77534,-15.29297 5.99416,-16.49465 3.21882,-1.21601 5.67943,-4.47774 5.47914,-7.29599 -0.20028,-2.81826 1.60226,-5.26456 4.03425,-5.47915 2.4177,-0.21459 4.39191,-2.6752 4.39191,-5.47915 0,-2.81825 -6.25166,-6.48056 -13.97683,-8.18295 l -8.56921,-1.88837 c -7.71086,-1.7024 -20.17127,-1.48782 -27.8249,0.4864 l -17.52468,4.52065 c -7.65364,1.9742 -13.53335,4.73524 -13.14709,6.15151 0.38626,1.41629 3.31896,3.07577 6.55209,3.67661 3.21881,0.60085 5.83679,3.21883 5.83679,5.83679 0,2.61798 3.59076,5.55068 8.02558,6.55209 4.43482,1.00141 7.38183,4.90691 6.5807,8.74089 -0.80112,3.83396 -2.58936,9.0556 -4.00565,11.67358 -1.40197,2.61797 -7.95405,5.07858 -14.60628,5.47914 -6.65222,0.40057 -13.47612,-5.50776 -15.22143,-13.21862 l -9.69938,-42.93189 c -1.74531,-7.71086 -3.24743,-20.35724 -3.36187,-28.25408 l -0.34334,-23.1898 c -0.11445,-7.89684 6.18013,-14.69212 14.06265,-15.16421 l 91.88656,-5.56499 c 7.88253,-0.47208 14.37739,-7.26737 14.50615,-15.16421 l 0.25749,-16.6091 c 0.12876,-7.89684 -6.1229,-13.47612 -13.96252,-12.4461 l -66.52225,8.68366 c -7.83962,1.01571 -19.55612,-1.64518 -26.17973,-5.95124 l -5.17872,-3.36188 c -6.62362,-4.30607 -11.98831,-10.58634 -11.98831,-14.01974 0,-3.43341 2.28894,-6.70945 5.09288,-7.32461 2.81826,-0.60085 5.22164,-4.82107 5.39331,-9.41326 0.15737,-4.59218 6.66654,-8.75519 14.54906,-9.2845 44.57707,-3.00423 79.42615,-5.33608 95.14829,-6.39472 4.12009,-0.27181 2.57506,-14.96393 8.7695,-27.3528 6.19443,-12.38889 57.28067,-18.06832 71.7439,-28.38284 11.90247,-8.49768 -1.78824,-31.37275 -4.26315,-47.60991 -0.52932,-3.47632 12.00262,-4.54926 12.00262,-7.0957 0,-11.74512 9.99979,-24.11968 8.38323,-24.77776 z m -543.494,469.7759 c -2.21741,3.00423 -10.38606,5.92263 -18.2686,6.49486 l -1.40197,0.10014 c -7.88253,0.57224 -15.57908,-1.73101 -17.20995,-5.15011 -1.61656,-3.4191 -3.23312,-12.58915 -3.60508,-20.48599 l -2.27464,-48.76868 c -0.37194,-7.89684 5.73666,-14.39171 13.6335,-14.52045 l 18.81221,-0.30043 c 7.89683,-0.12876 14.30586,6.16583 14.30586,14.07697 v 48.7973 h 0.0143 c 0,7.89683 -1.78823,16.75216 -4.00564,19.75639 z m 63.58955,-81.2859 4.24884,-0.18598 c 7.89684,-0.34334 14.34878,5.77956 14.43462,13.6907 l 0.44348,45.83599 c 0.0716,7.89683 -0.84405,16.75217 -2.06005,19.75639 -1.21599,3.00423 -7.5821,5.13581 -14.22002,4.73524 -6.63792,-0.40056 -13.1757,-2.83256 -14.57767,-5.45053 -1.40198,-2.61797 -2.54645,-11.14427 -2.54645,-19.0411 v -44.41971 c -0.0143,-7.89683 6.39472,-14.59198 14.27725,-14.921 z m 63.36066,-179.65303 -41.48699,2.17449 c -7.89684,0.41487 -14.44892,-1.53072 -14.6349,-4.34897 -0.20028,-2.81826 -4.27746,-7.22446 -9.12715,-9.84244 -4.84968,-2.61797 -8.76949,-7.19585 -8.76949,-10.22869 0,-3.03284 2.30325,-5.47914 5.13581,-5.47914 2.83256,0 5.26456,-4.56358 5.42192,-10.20008 0.15736,-5.62221 6.66653,-10.61495 14.54906,-11.11566 12.56055,-0.81543 25.47875,-1.64517 38.72597,-2.51784 7.88253,-0.515 15.52186,5.3504 17.05259,13.08987 l 4.66371,23.6619 c 1.51642,7.76808 -3.64799,14.39169 -11.53053,14.80656 z M 643.21446,667.2908 c -4.43482,-0.60085 -8.68366,-3.21883 -9.48479,-5.83679 -0.80112,-2.61798 -1.61656,-11.14427 -1.83115,-19.04111 l -1.43059,-53.84726 c -0.21458,-7.89684 4.19163,-13.97683 9.84244,-13.59057 5.65081,0.38626 10.27161,7.11001 10.32883,15.02115 l 0.4864,64.09027 c 0.0716,7.89683 -3.47632,13.80515 -7.91114,13.20431 z m 1.35905,-291.31027 -0.515,0.21458 c -7.32461,2.97562 -12.9182,7.49627 -12.51763,10.11425 0.41487,2.61797 -5.65082,5.1358 -13.53335,5.6222 l -42.98911,2.63228 c -7.88254,0.4864 -12.88959,-5.37901 -11.17288,-13.08986 l 5.66512,-25.55027 c 1.7167,-7.71086 9.49909,-14.3917 17.38162,-14.92102 15.20714,-1.01572 29.95647,-2.00282 44.59137,-2.98992 7.88253,-0.52932 14.69212,3.13298 15.22144,8.16865 0.51501,5.03565 3.06145,9.12713 5.67943,9.12713 2.61797,0 4.90691,3.4191 5.09288,7.63933 0.18598,4.22023 -5.59359,10.05702 -12.90389,13.03265 z m 79.31171,199.3808 c 7.05278,-0.60085 12.9468,5.30747 13.14708,13.20431 l 1.43059,53.84726 c 0.21459,7.89684 -1.24461,16.75217 -3.26173,19.785 -2.01713,3.03285 -7.56781,5.15012 -12.41749,4.73525 -4.84969,-0.41487 -8.98409,-7.13862 -9.24159,-15.03546 l -1.97421,-61.14326 c -0.2575,-7.89683 5.26455,-14.79226 12.31735,-15.3931 z"
       id="path1" /></g></svg>
